<?xml version="1.0" encoding="utf-8"?>
<!-- Generator: Adobe Illustrator 18.0.0, SVG Export Plug-In . SVG Version: 6.00 Build 0)  -->
<!DOCTYPE svg PUBLIC "-//W3C//DTD SVG 1.1//EN" "http://www.w3.org/Graphics/SVG/1.1/DTD/svg11.dtd">
<svg version="1.1" id="Layer_1" xmlns="http://www.w3.org/2000/svg" xmlns:xlink="http://www.w3.org/1999/xlink" x="0px" y="0px"
	 viewBox="0 0 129.7 131.7" enable-background="new 0 0 129.7 131.7" xml:space="preserve">
<path fill="#FFFFFF" d="M129.7,66.8c0,35.8-29,64.8-64.8,64.8C29,131.7,0,102.7,0,66.8C0,31,29,2,64.8,2
	C100.6,2,129.7,31,129.7,66.8"/>
<path fill="#1B1B1C" d="M34.9,124.9l0.2-1.1c2-9.4,6.2-28.3,8.2-29.8C46,92,72,80.3,72,80.3s3-0.7,3,2.7c0,3.3-2.7,35.6-2.7,35.6
	s5,10.7,13.7-42.6c3.4-2,5.9-3.7,7.7-5.2C100,65.4,97.1,63,94,63h-5.7c0,0,2-16.7,2.3-20.7c0.3-4-0.3-12-6.3-12
	c-6,32-7.3,37.3-8.3,38.3c-1,1-29.7,11-29.7,11C55,47,56.7,41.7,61,28c0.5-8.5-5.7-11.3-9-6.7c-9,28.7-14.3,57.3-16.3,59
	c-2,1.7-3.7,4-8,7c-4.3,3-0.3,9.3,3.7,10.3c-1.4,7.1-3.4,14.8-4.9,20.4l-0.2,0.7l-0.1,0.3C29,121.4,31.9,123.3,34.9,124.9"/>
</svg>
